<?xml version="1.0" encoding="UTF-8"?>
<svg version="1.1" xmlns="http://www.w3.org/2000/svg" width="1004" height="237">
<path d="M0 0 C34.70096484 22.07190633 34.70096484 22.07190633 45 28.9375 C45.91507324 29.54718628 45.91507324 29.54718628 46.84863281 30.16918945 C50.863125 32.863125 50.863125 32.863125 52 34 C51.86346985 35.88996461 51.67781719 37.77640582 51.47265625 39.66015625 C51.3347613 42.12753871 51.19810529 44.59499064 51.0625 47.0625 C50.90458984 48.25939453 50.74667969 49.45628906 50.58398438 50.68945312 C50.45216285 55.02106203 50.4718878 58.42027859 53 62 C56.76478668 64.72134475 60.86507515 66.82719505 64.93359375 69.05859375 C75.72848435 75.27444932 75.72848435 75.27444932 78.47097778 81.15310669 C80.39605223 88.6833019 80.44721227 96.23667332 80.12890625 103.96289062 C79.99154932 107.33999067 80.07266053 110.67199042 80.21173954 114.04752541 C80.49607523 122.22595558 80.51563556 130.47204057 77 138 C72.53180473 142.71272827 67.19284294 145.70444115 61.54026794 148.80526733 C54.9998341 151.99981508 54.9998341 151.99981508 51.08251953 157.73144531 C50.74442687 161.58459639 50.93276343 164.81310622 51.5625 168.625 C52.92968028 180.81947054 52.92968028 180.81947054 50.50976562 183.89233398 C48.09580532 185.54100692 45.64426395 186.75293928 43 188 C40.83439094 189.24483218 38.67596468 190.50221263 36.5234375 191.76953125 C34.14558159 193.12597649 31.75990412 194.46849347 29.375 195.8125 C26.88013092 197.22153323 24.38659807 198.6328914 21.89453125 200.046875 C21.29110397 200.3892067 20.6876767 200.73153839 20.06596375 201.08424377 C16.67242592 203.01859331 13.32178318 205.00434969 10.01171875 207.078125 C9.32480957 207.50762451 8.63790039 207.93712402 7.93017578 208.37963867 C6.20709851 209.47092094 4.49555621 210.58035979 2.78515625 211.69140625 C-0.55191724 213.25931596 -1.52241221 212.98919195 -5 212 C-7.49536133 210.78491211 -7.49536133 210.78491211 -10.08203125 209.27734375 C-11.47905273 208.47006836 -11.47905273 208.47006836 -12.90429688 207.64648438 C-13.86400391 207.08251953 -14.82371094 206.51855469 -15.8125 205.9375 C-16.79154297 205.36966797 -17.77058594 204.80183594 -18.77929688 204.21679688 C-21.18986295 202.81749267 -23.59542675 201.40957743 -26 200 C-26 192.74 -26 185.48 -26 178 C-22.20158817 179.51936473 -19.98919967 180.56932177 -16.84765625 182.8828125 C-9.06173394 188.78130501 -9.06173394 188.78130501 0.07470703 190.82373047 C4.04438212 189.41948471 7.19858851 186.91186971 10.41113281 184.24658203 C12.8777391 182.31134975 15.59810839 180.93790698 18.375 179.5 C19.26960937 179.0153125 20.16421875 178.530625 21.0859375 178.03125 C21.71757812 177.6909375 22.34921875 177.350625 23 177 C19.3490289 174.31124745 15.67739208 171.65246732 12 169 C11.15566406 168.37222656 10.31132812 167.74445313 9.44140625 167.09765625 C8.67699219 166.54980469 7.91257813 166.00195312 7.125 165.4375 C6.44695312 164.94121094 5.76890625 164.44492188 5.0703125 163.93359375 C2.28431504 162.6772666 0.86781359 163.04406214 -2 164 C-3.85013462 165.26608788 -5.47047415 166.66166488 -7.15625 168.13671875 C-9 169 -9 169 -11.29296875 168.40234375 C-14.56379446 166.70793332 -17.69945416 164.83930763 -20.8125 162.875 C-21.40998047 162.50246094 -22.00746094 162.12992188 -22.62304688 161.74609375 C-24.08426251 160.8342952 -25.54244585 159.91764024 -27 159 C-22.46147137 153.98069503 -17.09394892 150.3876424 -11.5 146.625 C-10.56285156 145.97144531 -9.62570313 145.31789062 -8.66015625 144.64453125 C-7.29697266 143.72607422 -7.29697266 143.72607422 -5.90625 142.7890625 C-5.08447266 142.22912598 -4.26269531 141.66918945 -3.41601562 141.09228516 C-0.39374715 139.72591196 0.88819617 139.95008997 4 141 C6.16894531 142.11987305 6.16894531 142.11987305 8.328125 143.51171875 C9.52888672 144.27838867 9.52888672 144.27838867 10.75390625 145.06054688 C11.57761719 145.59744141 12.40132812 146.13433594 13.25 146.6875 C14.05824219 147.20505859 14.86648437 147.72261719 15.69921875 148.25585938 C21.17513002 151.77358477 26.59488474 155.3746772 32 159 C31.92644287 157.99912354 31.85288574 156.99824707 31.77709961 155.96704102 C31.64061618 151.7176208 31.89434172 148.13403757 33 144 C36.67260295 140.64077673 41.06227951 138.98648822 45.5625 136.9375 C50.93900824 134.11203523 56.47753875 130.80507593 58.81951904 124.95178223 C60.35004688 119.20621085 60.51726444 113.47805308 60.5 107.5625 C60.51982941 106.7250827 60.53965881 105.88766541 60.56008911 105.02487183 C60.63010029 98.7944865 60.66983555 92.17262601 56.47900391 87.19256592 C52.43524815 83.53269556 48.1182433 80.86232102 43 79 C38.98416052 79.94119606 36.11576955 82.19627231 32.8125 84.625 C28.21836735 88 28.21836735 88 26 88 C26 91.63 26 95.26 26 99 C27.65 99.66 29.3 100.32 31 101 C32.50105045 101.8983522 33.97668996 102.84035149 35.42578125 103.8203125 C36.22177734 104.35527344 37.01777344 104.89023438 37.83789062 105.44140625 C38.65451172 105.99699219 39.47113281 106.55257812 40.3125 107.125 C41.14845703 107.68832031 41.98441406 108.25164062 42.84570312 108.83203125 C44.89999052 110.21720789 46.95127038 111.60662219 49 113 C47.13383417 117.29926811 44.32434285 118.97153297 40.375 121.25 C39.76398438 121.61351562 39.15296875 121.97703125 38.5234375 122.3515625 C37.02106273 123.24359752 35.51123449 124.12305829 34 125 C32.10393548 123.89623038 30.20815846 122.79196687 28.3125 121.6875 C27.25675781 121.07261719 26.20101562 120.45773438 25.11328125 119.82421875 C22.39808611 118.23325748 19.69704786 116.62142759 17 115 C16.40461426 115.39380859 15.80922852 115.78761719 15.19580078 116.19335938 C12.50862182 117.96697095 9.81689655 119.73355765 7.125 121.5 C6.18785156 122.12003906 5.25070313 122.74007812 4.28515625 123.37890625 C3.38925781 123.96542969 2.49335938 124.55195313 1.5703125 125.15625 C0.74289551 125.70087891 -0.08452148 126.24550781 -0.93701172 126.80664062 C-3 128 -3 128 -5 128 C-6.63841602 109.24391759 -6.63841602 109.24391759 -2.84375 104.046875 C0.29095517 101.90302491 3.11603252 100 7 100 C7.58896552 91.22718455 7.58896552 91.22718455 3.9296875 83.734375 C1.66963384 82.27490461 -0.56715693 81.13436706 -3 80 C-9.24080939 82.35611047 -15.53373288 84.86091898 -20 90 C-22.57732859 97.0051131 -21.19902957 105.2195844 -20.5625 112.5 C-18.86599699 132.30041121 -18.86599699 132.30041121 -22.49389648 136.88983154 C-26.26686411 140.11675025 -30.48123832 142.21108071 -35.03125 144.13143921 C-37.81963574 145.36160176 -40.32317178 146.96839215 -42.875 148.625 C-46.74585635 151 -46.74585635 151 -49 151 C-49 159.25 -49 167.5 -49 176 C-53.01759387 174.39296245 -55.63746664 173.0240773 -59.0625 170.5625 C-59.89910156 169.96566406 -60.73570313 169.36882812 -61.59765625 168.75390625 C-62.39042969 168.17511719 -63.18320313 167.59632813 -64 167 C-64.75796875 166.57203125 -65.5159375 166.1440625 -66.296875 165.703125 C-68 164 -68 164 -68.29296875 160.85546875 C-68.25816406 159.64503906 -68.22335938 158.43460938 -68.1875 157.1875 C-68.28149199 151.947479 -68.28149199 151.947479 -71.0546875 147.74609375 C-73.32079385 146.28124307 -75.51789357 145.05301485 -78 144 C-80.3971921 145.07323269 -82.68117718 146.21317946 -85 147.4375 C-85.66773438 147.72431641 -86.33546875 148.01113281 -87.0234375 148.30664062 C-89.44300971 149.65221905 -90.52090564 150.63161327 -92 153 C-93.5504157 158.73705887 -94.27949082 164.35434933 -92 170 C-88.31644786 174.38363819 -82.89556909 176.83709641 -77.89181519 179.43109131 C-60.79328846 188.41286286 -60.79328846 188.41286286 -57.43701172 195.12646484 C-56.15589542 201.58181776 -57.04437794 207.76206706 -59 214 C-62.69365305 213.35219008 -65.23091739 211.73097962 -68.33984375 209.67578125 C-69.39365234 208.98299072 -70.44746094 208.2902002 -71.53320312 207.57641602 C-72.66810141 206.82197687 -73.80286422 206.06733388 -74.9375 205.3125 C-76.09932922 204.54506724 -77.26144135 203.77806261 -78.42382812 203.01147461 C-81.38054739 201.05941443 -84.33251723 199.1002931 -87.28338623 197.1394043 C-89.95789885 195.36419358 -92.6375278 193.596738 -95.31640625 191.828125 C-97.21130814 190.57347627 -99.10585936 189.3182977 -101 188.0625 C-101.88292725 187.47831299 -102.76585449 186.89412598 -103.67553711 186.29223633 C-104.48385986 185.7536499 -105.29218262 185.21506348 -106.125 184.66015625 C-106.82882813 184.19230713 -107.53265625 183.72445801 -108.2578125 183.24243164 C-110 182 -110 182 -112 180 C-112.22705078 177.20263672 -112.22705078 177.20263672 -112.1953125 173.6796875 C-112.18886719 172.42285156 -112.18242188 171.16601562 -112.17578125 169.87109375 C-112.15902344 168.55238281 -112.14226562 167.23367187 -112.125 165.875 C-112.11496983 164.53516279 -112.10584404 163.19531848 -112.09765625 161.85546875 C-112.07402075 158.57013427 -112.04107234 155.28515535 -112 152 C-112.72993164 151.73195557 -113.45986328 151.46391113 -114.21191406 151.18774414 C-116.9512335 150.02077487 -119.16482251 148.68607511 -121.609375 146.99609375 C-122.86427734 146.13274414 -122.86427734 146.13274414 -124.14453125 145.25195312 C-125.00433594 144.65318359 -125.86414063 144.05441406 -126.75 143.4375 C-128.06291016 142.53354492 -128.06291016 142.53354492 -129.40234375 141.61132812 C-135.82430686 137.17569314 -135.82430686 137.17569314 -137 136 C-137.92408079 128.61250829 -138.0869678 121.10414468 -138.32562351 113.6689291 C-138.4389018 110.22451774 -138.59606181 106.79563727 -138.86547852 103.35961914 C-140.26662289 85.03742618 -140.26662289 85.03742618 -137 77 C-132.62132512 72.19024091 -127.27723318 69.25514044 -121.61291504 66.17286682 C-115.0255664 63.00596469 -115.0255664 63.00596469 -111.0769043 57.27026367 C-110.74486023 53.41850234 -110.93305645 50.18512009 -111.5625 46.375 C-112.59259626 37.1871272 -112.59259626 37.1871272 -112 33 C-109.55402691 29.94360558 -106.49565175 28.64314277 -103 27 C-101.0148663 25.85232625 -99.03733739 24.6914277 -97.06640625 23.51953125 C-94.90015547 22.28084489 -92.73212178 21.04527235 -90.5625 19.8125 C-80.91934279 14.32742727 -80.91934279 14.32742727 -71.4765625 8.5078125 C-70.65857178 7.98598389 -69.84058105 7.46415527 -68.99780273 6.92651367 C-67.49495121 5.95791054 -66.00158331 4.97437684 -64.51977539 3.97387695 C-62.51171875 2.68359375 -62.51171875 2.68359375 -59 1 C-56.58447266 1.7668457 -56.58447266 1.7668457 -54 3 C-53.20682373 3.32323242 -52.41364746 3.64646484 -51.59643555 3.97949219 C-45.22826401 6.74293099 -38.59884265 9.65556029 -34 15 C-31.59454857 22.0678383 -32.74654069 29.77621755 -34 37 C-38.59947408 34.80891196 -43.12204763 32.62414105 -47.3828125 29.81640625 C-47.95233643 29.44451172 -48.52186035 29.07261719 -49.10864258 28.68945312 C-50.75524308 27.60037046 -52.38769364 26.48998691 -54.01953125 25.37890625 C-56.85810651 23.66051035 -56.85810651 23.66051035 -59.40039062 24.7512207 C-61.87015779 25.93762745 -64.21991694 27.20105732 -66.57421875 28.6015625 C-67.82235352 29.33632813 -67.82235352 29.33632813 -69.09570312 30.0859375 C-70.83566134 31.11916062 -72.57523973 32.15302363 -74.31445312 33.1875 C-75.14267578 33.67476562 -75.97089844 34.16203125 -76.82421875 34.6640625 C-77.57791748 35.11217285 -78.33161621 35.5602832 -79.1081543 36.02197266 C-81 37 -81 37 -83 37 C-83 37.66 -83 38.32 -83 39 C-82.12601563 39.42128174 -82.12601563 39.42128174 -81.234375 39.85107422 C-79.14386552 40.92602369 -77.21532502 42.0961134 -75.25 43.3828125 C-74.5590625 43.82753906 -73.868125 44.27226563 -73.15625 44.73046875 C-71.71517693 45.66246709 -70.27767381 46.60000798 -68.84375 47.54296875 C-68.1528125 47.98511719 -67.461875 48.42726562 -66.75 48.8828125 C-66.12609375 49.28902832 -65.5021875 49.69524414 -64.859375 50.11376953 C-62.74149138 51.28683708 -62.74149138 51.28683708 -59 51 C-56.94558075 49.76069446 -55.09983898 48.35574724 -53.1953125 46.8984375 C-51 46 -51 46 -48.140625 46.625 C-44.80571905 48.08505833 -41.74636868 49.75217879 -38.625 51.625 C-37.56539063 52.25664063 -36.50578125 52.88828125 -35.4140625 53.5390625 C-34.61742188 54.02117187 -33.82078125 54.50328125 -33 55 C-34.75572741 60.26718222 -40.40168613 62.64486859 -44.90917969 65.59936523 C-46.74192236 66.80717669 -48.55416875 68.04214054 -50.3671875 69.27929688 C-51.53009806 70.04861911 -52.69412618 70.81625526 -53.859375 71.58203125 C-54.91608398 72.28561768 -55.97279297 72.9892041 -57.06152344 73.71411133 C-60 75 -60 75 -62.56347656 74.41064453 C-65.11860755 72.93133122 -67.64322399 71.44807766 -70.125 69.84765625 C-71.07890625 69.23599609 -72.0328125 68.62433594 -73.015625 67.99414062 C-74.00046875 67.35669922 -74.9853125 66.71925781 -76 66.0625 C-77.9580015 64.80286945 -79.91632409 63.54373786 -81.875 62.28515625 C-82.73867187 61.72707275 -83.60234375 61.16898926 -84.4921875 60.59399414 C-86.97027421 59.01889405 -89.47555917 57.49945225 -92 56 C-91.89945313 57.485 -91.89945313 57.485 -91.796875 59 C-91.50858572 69.39289423 -91.50858572 69.39289423 -95.31640625 73.49609375 C-98.3125 75.4375 -98.3125 75.4375 -101.23828125 76.99609375 C-102.06440918 77.44710449 -102.06440918 77.44710449 -102.90722656 77.90722656 C-104.58245114 78.78197052 -106.3046283 79.56655507 -108.03808594 80.31933594 C-114.09015518 83.41313556 -114.09015518 83.41313556 -117.72463989 88.94857788 C-118.76366433 93.84765412 -118.79526681 98.72736187 -118.67431641 103.71679688 C-118.62507251 106.37109188 -118.71431938 108.99615146 -118.81640625 111.6484375 C-118.99528998 120.21829427 -118.99528998 120.21829427 -115.62243652 127.85803223 C-111.91285351 131.54170995 -107.88978471 134.17735069 -103 136 C-98.9905246 135.044945 -96.11257093 132.8013759 -92.8125 130.375 C-88.21836735 127 -88.21836735 127 -86 127 C-85.39243998 122.95472697 -85.52180246 119.83846705 -87 116 C-90.70874407 112.25134928 -95.4827307 109.7612407 -100.03222656 107.17285156 C-103.16487629 105.30569904 -106.06277437 103.15905157 -109 101 C-104.9885064 96.60029735 -100.41166899 92.57514124 -95 90 C-90.00873669 90.20455997 -85.83254778 94.56231022 -81.97265625 97.3828125 C-79.21622158 99.16762993 -79.21622158 99.16762993 -76.62890625 99.08984375 C-72.64546066 97.43845992 -69.3464821 94.96997464 -65.875 92.4375 C-64.46033458 91.409 -63.04123704 90.38656085 -61.6171875 89.37109375 C-60.99440918 88.91661865 -60.37163086 88.46214355 -59.72998047 87.99389648 C-58 87 -58 87 -55 87 C-53.36158398 105.75608241 -53.36158398 105.75608241 -57.15625 110.953125 C-60.29095517 113.09697509 -63.11603252 115 -67 115 C-67.26499313 122.97435859 -67.26499313 122.97435859 -64.55078125 130.234375 C-62.70119048 131.91946854 -61.34221312 133.10553278 -59 134 C-52.15499446 133.09954391 -44.38993752 130.62812503 -40 125 C-37.60345804 117.97847759 -38.54533354 110.0421292 -38.875 102.75 C-38.9587175 99.70633979 -39.02253669 96.66368864 -39.06668091 93.61920166 C-39.09973952 91.73096579 -39.15869978 89.84296269 -39.24655151 87.95648193 C-39.4357445 81.6068092 -39.4357445 81.6068092 -37.23632812 78.54394531 C-33.21870399 75.77020568 -33.21870399 75.77020568 -31.1015625 74.5625 C-30.37453125 74.14226562 -29.6475 73.72203125 -28.8984375 73.2890625 C-28.14820312 72.86367187 -27.39796875 72.43828125 -26.625 72 C-24.41394052 70.73324717 -22.20773624 69.46363061 -20.02099609 68.15527344 C-18 67 -18 67 -14.515625 65.453125 C-10.93104941 61.95760719 -11.23448696 58.98511503 -11.1171875 54.1171875 C-11.12105469 52.45042969 -11.12105469 52.45042969 -11.125 50.75 C-11.104375 49.62335937 -11.08375 48.49671875 -11.0625 47.3359375 C-11.01539181 44.55655446 -10.99555958 41.77970081 -11 39 C-6.87609494 40.57615904 -3.47836559 42.52269456 0.1875 45 C1.23292969 45.70125 2.27835938 46.4025 3.35546875 47.125 C6 49 6 49 8 51 C8.1953125 54.2578125 8.1953125 54.2578125 8.125 58.125 C8.10695312 59.40632813 8.08890625 60.68765625 8.0703125 62.0078125 C8.04710937 62.99523437 8.02390625 63.98265625 8 65 C8.78375 65.29390625 9.5675 65.5878125 10.375 65.890625 C13 67 13 67 15 68.75 C15.66 69.1625 16.32 69.575 17 70 C20.66272809 68.85884854 23.56554856 67.06937674 26.6875 64.875 C30.77990431 62 30.77990431 62 33 62 C33 56.06 33 50.12 33 44 C31.35 43.34 29.7 42.68 28 42 C1.58429525 28.73324194 1.58429525 28.73324194 -2.36767578 19.96582031 C-3.55057524 13.60937167 -2.93161072 7.16635897 -1 1 C-0.67 0.67 -0.34 0.34 0 0 Z " fill="#AE71FA" transform="translate(140,11)"/>
<path d="M0 0 C0.84175781 -0.00128906 1.68351562 -0.00257812 2.55078125 -0.00390625 C3.87142578 0.00189453 3.87142578 0.00189453 5.21875 0.0078125 C6.09917969 0.00394531 6.97960937 0.00007813 7.88671875 -0.00390625 C9.14935547 -0.00197266 9.14935547 -0.00197266 10.4375 0 C11.21029297 0.00112793 11.98308594 0.00225586 12.77929688 0.00341797 C14.71875 0.1328125 14.71875 0.1328125 16.71875 1.1328125 C18.45064994 8.72735507 17.73698056 16.70707524 17.59179688 24.44140625 C17.23930266 35.37497378 17.23930266 35.37497378 21.28125 45.1953125 C25.66253179 46.88042088 30.44428844 46.94453157 34.875 45.36328125 C37.16096878 43.83768768 37.78475046 42.70362312 38.71875 40.1328125 C40.43685839 31.12084775 39.76975566 21.52974441 39.59423828 12.41113281 C39.57659424 10.89664551 39.57659424 10.89664551 39.55859375 9.3515625 C39.54175537 8.44341797 39.52491699 7.53527344 39.50756836 6.59960938 C39.73349914 3.96052886 40.48434027 2.44179296 41.71875 0.1328125 C48.62373319 0.03143428 55.52852465 -0.0386437 62.43408203 -0.08691406 C64.78343884 -0.10703564 67.13274554 -0.13433601 69.48193359 -0.16894531 C72.85787315 -0.2174379 76.23315086 -0.24015107 79.609375 -0.2578125 C80.66054504 -0.27845764 81.71171509 -0.29910278 82.79473877 -0.32037354 C90.02481253 -0.32260087 90.02481253 -0.32260087 93.22460938 1.77734375 C94.96585053 4.52235921 96.39691765 7.24527121 97.734375 10.2109375 C98.52714844 11.95117188 98.52714844 11.95117188 99.3359375 13.7265625 C99.88040442 14.94522491 100.42467279 16.16397605 100.96875 17.3828125 C101.52782052 18.61756152 102.08770836 19.85194082 102.6484375 21.0859375 C104.01328928 24.0980242 105.36969725 27.11362482 106.71875 30.1328125 C109.21444289 27.04442135 110.89442425 23.9044769 112.56640625 20.30859375 C113.08912109 19.19806641 113.61183594 18.08753906 114.15039062 16.94335938 C115.24281584 14.60020542 116.3339499 12.2564491 117.42382812 9.91210938 C117.94525391 8.80544922 118.46667969 7.69878906 119.00390625 6.55859375 C119.47707275 5.54192627 119.95023926 4.52525879 120.43774414 3.4777832 C121.71875 1.1328125 121.71875 1.1328125 123.71875 0.1328125 C125.43537123 0.03651601 127.15568118 0.00206224 128.875 0 C129.89722656 -0.00128906 130.91945313 -0.00257812 131.97265625 -0.00390625 C133.04386719 -0.00003906 134.11507812 0.00382812 135.21875 0.0078125 C136.82556641 0.00201172 136.82556641 0.00201172 138.46484375 -0.00390625 C139.48707031 -0.00261719 140.50929688 -0.00132813 141.5625 0 C142.50287109 0.00112793 143.44324219 0.00225586 144.41210938 0.00341797 C146.71875 0.1328125 146.71875 0.1328125 148.71875 1.1328125 C148.13790119 5.57215698 146.33765466 8.90514175 144.09375 12.6953125 C139.95840183 19.85241309 136.02593438 27.108702 132.14297485 34.40460205 C123.04830208 51.48569873 123.04830208 51.48569873 118.90625 58.8203125 C118.32230469 59.85542969 117.73835937 60.89054687 117.13671875 61.95703125 C115.71875 64.1328125 115.71875 64.1328125 113.71875 65.1328125 C111.78751789 65.33249676 109.8467811 65.44560065 107.90625 65.5078125 C106.86855469 65.55679688 105.83085938 65.60578125 104.76171875 65.65625 C100.65078134 64.94910544 99.46114032 63.22947784 96.71875 60.1328125 C94.88867188 57.17626953 94.88867188 57.17626953 93.1875 53.890625 C92.87439377 53.29343658 92.56128754 52.69624817 92.23869324 52.08096313 C91.57014561 50.80417371 90.90558099 49.52529195 90.24472046 48.24450684 C88.50258694 44.87103075 86.72753306 41.51489749 84.95703125 38.15625 C84.42418266 37.1426239 84.42418266 37.1426239 83.88056946 36.10852051 C80.47948418 29.64882152 76.9772929 23.25041809 73.40625 16.8828125 C72.87386719 15.92004395 72.34148437 14.95727539 71.79296875 13.96533203 C71.29796875 13.08731934 70.80296875 12.20930664 70.29296875 11.3046875 C69.86588623 10.5425293 69.43880371 9.78037109 68.9987793 8.99511719 C67.69174023 6.84650477 67.69174023 6.84650477 64.71875 5.1328125 C64.69893066 6.17622803 64.67911133 7.21964355 64.65869141 8.29467773 C64.58204047 12.2031071 64.49342 16.11119269 64.40136719 20.01928711 C64.36332123 21.70378787 64.32842801 23.38836315 64.296875 25.07299805 C64.25068934 27.50856994 64.19279006 29.94363942 64.1328125 32.37890625 C64.12126129 33.11991074 64.10971008 33.86091522 64.09780884 34.62437439 C63.81876969 44.73660892 61.64467311 52.9171292 54.59375 60.3828125 C46.35663464 65.39670881 38.23457795 66.7795862 28.71875 66.6328125 C27.71585937 66.64828125 26.71296875 66.66375 25.6796875 66.6796875 C15.78080494 66.62853048 6.57148613 64.19931009 -0.64160156 57.12084961 C-7.7203923 48.53797395 -6.95958441 37.55777026 -7.06518555 27.02612305 C-7.09392897 24.1775758 -7.14909495 21.33046958 -7.20898438 18.48242188 C-7.2410957 16.66929699 -7.27174765 14.85614553 -7.30078125 13.04296875 C-7.3152681 12.1929982 -7.32975494 11.34302765 -7.34468079 10.46730042 C-7.37542943 7.09376267 -7.3559907 4.35703459 -6.28125 1.1328125 C-3.95781444 -0.02890528 -2.58491684 0.00377281 0 0 Z " fill="#FAF7F3" transform="translate(444.28125,87.8671875)"/>
<path d="M0 0 C1.45116211 -0.03673828 1.45116211 -0.03673828 2.93164062 -0.07421875 C3.86041016 -0.07808594 4.78917969 -0.08195312 5.74609375 -0.0859375 C7.02311157 -0.09826416 7.02311157 -0.09826416 8.32592773 -0.11083984 C10.5625 0.375 10.5625 0.375 12.22558594 2.07128906 C13.67172854 4.56321776 14.74460729 7.00161102 15.76953125 9.6953125 C16.39154419 11.30889648 16.39154419 11.30889648 17.02612305 12.95507812 C17.47125244 14.12490234 17.91638184 15.29472656 18.375 16.5 C19.35427265 19.03486285 20.33537896 21.5689043 21.3203125 24.1015625 C21.57848251 24.76621521 21.83665253 25.43086792 22.10264587 26.11566162 C25.20851481 34.08048444 28.47974801 41.97661354 31.75 49.875 C32.93408431 52.73938072 34.11748894 55.60404202 35.30078125 58.46875 C35.58261765 59.15089569 35.86445404 59.83304138 36.15483093 60.53585815 C38.60619959 66.4726437 41.0375843 72.41720231 43.4375 78.375 C43.92899536 79.58446289 43.92899536 79.58446289 44.43041992 80.81835938 C46.5625 86.13873569 46.5625 86.13873569 46.5625 88.375 C47.2225 88.705 47.8825 89.035 48.5625 89.375 C49.44921875 91.265625 49.44921875 91.265625 50.25 93.625 C50.52199219 94.39328125 50.79398437 95.1615625 51.07421875 95.953125 C51.6360925 98.74001881 51.18303837 100.62783982 50.5625 103.375 C46.81308747 103.54932891 43.06471491 103.65585841 39.3125 103.75 C38.24902344 103.80027344 37.18554688 103.85054688 36.08984375 103.90234375 C33.14049999 103.95799175 30.46173953 103.92357431 27.5625 103.375 C23.97025859 99.74454326 22.62924221 95.33757883 20.9375 90.5625 C19.72635438 86.14727618 19.72635438 86.14727618 16.5625 83.375 C14.62432944 83.27774281 12.68279563 83.24423363 10.7421875 83.2421875 C9.5665625 83.24089844 8.3909375 83.23960937 7.1796875 83.23828125 C5.94476563 83.24214844 4.70984375 83.24601562 3.4375 83.25 C2.22578125 83.24613281 1.0140625 83.24226563 -0.234375 83.23828125 C-6.39629636 83.24499358 -12.34744678 83.4182086 -18.4375 84.375 C-18.91960937 85.57898438 -19.40171875 86.78296875 -19.8984375 88.0234375 C-20.53619196 89.59906618 -21.17422741 91.17458114 -21.8125 92.75 C-22.12960937 93.5440625 -22.44671875 94.338125 -22.7734375 95.15625 C-23.0828125 95.91679687 -23.3921875 96.67734375 -23.7109375 97.4609375 C-24.13511963 98.5135376 -24.13511963 98.5135376 -24.56787109 99.58740234 C-25.4375 101.375 -25.4375 101.375 -27.4375 103.375 C-29.86767578 103.60205078 -29.86767578 103.60205078 -32.8828125 103.5703125 C-33.95917969 103.56386719 -35.03554688 103.55742187 -36.14453125 103.55078125 C-37.27246094 103.53402344 -38.40039062 103.51726562 -39.5625 103.5 C-41.26599609 103.48646484 -41.26599609 103.48646484 -43.00390625 103.47265625 C-45.81531299 103.44903098 -48.62630298 103.41609013 -51.4375 103.375 C-50.90743819 96.87949677 -48.65364771 91.52925396 -46.125 85.5625 C-45.13195741 83.17404358 -44.14096308 80.7848152 -43.15234375 78.39453125 C-42.87472198 77.72514526 -42.59710022 77.05575928 -42.31106567 76.36608887 C-37.83202078 65.53659321 -33.52770774 54.63564397 -29.1875 43.75 C-26.31570302 36.54755609 -23.44120601 29.3462391 -20.55200195 22.15075684 C-19.82224453 20.33323724 -19.09352599 18.51530009 -18.3659668 16.69689941 C-17.40043055 14.28789223 -16.42805746 11.88177945 -15.453125 9.4765625 C-15.17345886 8.77606781 -14.89379272 8.07557312 -14.60565186 7.35385132 C-11.31853971 -0.69971411 -8.00280831 0.01062085 0 0 Z M-0.4375 36.375 C-2.13260786 40.02920794 -3.79545753 43.69663932 -5.4375 47.375 C-5.85257812 48.30441406 -6.26765625 49.23382813 -6.6953125 50.19140625 C-7.06398438 51.05636719 -7.43265625 51.92132813 -7.8125 52.8125 C-8.15023437 53.59496094 -8.48796875 54.37742187 -8.8359375 55.18359375 C-9.71126867 57.67023247 -9.71126867 57.67023247 -8.4375 61.375 C-3.1575 61.375 2.1225 61.375 7.5625 61.375 C8.61048491 56.26232212 8.61048491 56.26232212 7.19921875 51.765625 C6.73418945 50.51072266 6.73418945 50.51072266 6.25976562 49.23046875 C5.92654297 48.37066406 5.59332031 47.51085937 5.25 46.625 C4.76756836 45.31208984 4.76756836 45.31208984 4.27539062 43.97265625 C2.89100019 39.36730716 2.89100019 39.36730716 -0.4375 36.375 Z " fill="#FAF7F2" transform="translate(303.4375,49.625)"/>
<path d="M0 0 C1.35738281 0.061875 1.35738281 0.061875 2.7421875 0.125 C7.92157643 0.48530532 7.92157643 0.48530532 10 1 C12.06754503 4.10131754 12.24768337 4.71800007 12.22273254 8.21961975 C12.22073853 9.50883583 12.22073853 9.50883583 12.21870422 10.82409668 C12.20687607 11.76394409 12.19504791 12.7037915 12.18286133 13.67211914 C12.17821869 14.66420883 12.17357605 15.65629852 12.16879272 16.67845154 C12.150382 19.96418628 12.11686261 23.2495573 12.08203125 26.53515625 C12.06348022 28.81293881 12.0453944 31.09072521 12.02775574 33.36851501 C11.98822402 38.14428817 11.94084408 42.9199082 11.88842773 47.69555664 C11.82205926 53.82822734 11.77847747 59.96082047 11.74116993 66.09372807 C11.70949304 70.79743866 11.66410573 75.5009417 11.61469078 80.20449638 C11.59291996 82.46637432 11.5758609 84.72830252 11.56351662 86.99025154 C11.54457131 90.14626594 11.50682473 93.30150568 11.46411133 96.45727539 C11.46155083 97.87008286 11.46155083 97.87008286 11.4589386 99.31143188 C11.4357959 100.59641823 11.4357959 100.59641823 11.41218567 101.90736389 C11.40137577 103.02702844 11.40137577 103.02702844 11.39034748 104.16931248 C11 106 11 106 8 108 C6.00708008 108.22705078 6.00708008 108.22705078 3.76953125 108.1953125 C2.96708984 108.18886719 2.16464844 108.18242187 1.33789062 108.17578125 C0.08782227 108.15064453 0.08782227 108.15064453 -1.1875 108.125 C-2.4549707 108.11146484 -2.4549707 108.11146484 -3.74804688 108.09765625 C-5.83215243 108.07410703 -7.91611217 108.03823647 -10 108 C-10.66 106.68 -11.32 105.36 -12 104 C-12.65484375 104.34933594 -13.3096875 104.69867188 -13.984375 105.05859375 C-22.57322381 109.34088701 -30.70523611 111.38879732 -40.1875 108.9375 C-49.18531911 105.74565727 -56.75104238 100.12342479 -61.25390625 91.63671875 C-65.23440962 82.27490769 -65.54364202 71.82660894 -62.5 62.125 C-58.40613519 52.55843397 -52.01484116 47.42142852 -42.734375 43.09375 C-32.12952804 38.85181122 -23.12460684 41.92155133 -13 46 C-12.99413376 45.45320587 -12.98826752 44.90641174 -12.98222351 44.3430481 C-12.91841896 38.66536481 -12.83403425 32.98825521 -12.73754883 27.31103516 C-12.7042404 25.19066926 -12.6762271 23.07021343 -12.65356445 20.94970703 C-12.62012697 17.90618465 -12.56781747 14.86349088 -12.51171875 11.8203125 C-12.50532883 10.86818878 -12.4989389 9.91606506 -12.49235535 8.93508911 C-12.47256119 8.05432709 -12.45276703 7.17356506 -12.43237305 6.26611328 C-12.42126999 5.48889923 -12.41016693 4.71168518 -12.39872742 3.91091919 C-11.2273502 -1.70295915 -4.30541008 -0.21066227 0 0 Z M-34 64 C-38.30442846 68.64425176 -39.3038873 71.57631383 -39.21484375 77.75 C-38.80990588 81.99080386 -36.69306968 84.19863819 -34 87.3125 C-29.41705336 89.89040748 -25.13622378 89.73159135 -20 89 C-15.81889199 87.13343392 -14.39935431 85.66988464 -12.0625 81.75 C-10.41324306 75.92909315 -10.97426354 72.09092433 -13.625 66.6875 C-16.49776573 63.43673878 -18.89394291 62.31980406 -23 61 C-27.56397781 61 -29.96733087 61.91165349 -34 64 Z " fill="#FAF7F2" transform="translate(740,45)"/>
<path d="M0 0 C0.89138672 0.04382812 1.78277344 0.08765625 2.70117188 0.1328125 C3.63380859 0.184375 4.56644531 0.2359375 5.52734375 0.2890625 C6.93209961 0.35480469 6.93209961 0.35480469 8.36523438 0.421875 C15.33608969 0.78530844 15.33608969 0.78530844 16.46484375 1.9140625 C16.55870756 3.7858719 16.58228179 5.6612431 16.57836914 7.53540039 C16.57829361 8.73656998 16.57821808 9.93773956 16.57814026 11.17530823 C16.57297897 12.4825737 16.56781769 13.78983917 16.5625 15.13671875 C16.56063573 16.48050382 16.55921187 17.82428957 16.55821228 19.16807556 C16.55438777 22.71088527 16.54455807 26.2536542 16.5335083 29.79644775 C16.52329274 33.40921477 16.51871435 37.02198834 16.51367188 40.63476562 C16.50293573 47.7278813 16.48586011 54.82096924 16.46484375 61.9140625 C19.67851412 60.3985083 21.50903307 58.98209982 23.77734375 56.2265625 C26.15429498 53.43224511 28.54562346 50.68305614 31.08984375 48.0390625 C31.61835937 47.48476562 32.146875 46.93046875 32.69140625 46.359375 C36.61070275 43.16523468 40.48289656 42.66809381 45.421875 42.71875 C46.53369141 42.72519531 47.64550781 42.73164062 48.79101562 42.73828125 C49.94150391 42.75503906 51.09199219 42.77179688 52.27734375 42.7890625 C53.44716797 42.79808594 54.61699219 42.80710938 55.82226562 42.81640625 C58.70333428 42.83992518 61.58398364 42.87279398 64.46484375 42.9140625 C64.79484375 43.9040625 65.12484375 44.8940625 65.46484375 45.9140625 C62.05351454 49.3357605 58.61717677 52.72988989 55.1640625 56.109375 C53.67097447 57.58038799 52.17929633 59.05281432 50.68823242 60.52587891 C49.65797048 61.54091046 48.62505413 62.55325432 47.58959961 63.56298828 C46.08652781 65.02980437 44.59324139 66.50598581 43.1015625 67.984375 C41.76677856 69.29559326 41.76677856 69.29559326 40.4050293 70.63330078 C38.14087046 72.79584533 38.14087046 72.79584533 38.46484375 75.9140625 C39.87512028 77.47522886 39.87512028 77.47522886 41.8125 78.96484375 C47.11391794 83.41093043 51.99767309 88.22555317 56.90234375 93.1015625 C57.81177734 93.99037109 58.72121094 94.87917969 59.65820312 95.79492188 C60.95274414 97.08172852 60.95274414 97.08172852 62.2734375 98.39453125 C63.05517334 99.16692139 63.83690918 99.93931152 64.64233398 100.73510742 C66.44812158 102.89406982 67.08371093 104.16404264 67.46484375 106.9140625 C62.93662524 108.42346867 58.45894653 108.18035371 53.71484375 108.2265625 C52.24917969 108.27006836 52.24917969 108.27006836 50.75390625 108.31445312 C41.88727461 108.39212577 37.36701096 105.88147747 31.1328125 99.83984375 C29.63156796 98.30965322 28.13820075 96.77169913 26.65234375 95.2265625 C25.14794875 93.67893045 23.64153894 92.13325355 22.1328125 90.58984375 C21.47563232 89.90833252 20.81845215 89.22682129 20.14135742 88.5246582 C18.5426515 86.82915653 18.5426515 86.82915653 16.46484375 85.9140625 C16.4805542 86.50944824 16.49626465 87.10483398 16.51245117 87.71826172 C16.57470176 90.40843253 16.61380158 93.09845207 16.65234375 95.7890625 C16.67748047 96.72621094 16.70261719 97.66335937 16.72851562 98.62890625 C16.73818359 99.52480469 16.74785156 100.42070312 16.7578125 101.34375 C16.77352295 102.17116699 16.7892334 102.99858398 16.80541992 103.85107422 C16.69302979 104.53186035 16.58063965 105.21264648 16.46484375 105.9140625 C13.33201383 108.00261578 12.61428025 108.16345051 9.05078125 108.14453125 C8.20773437 108.14259766 7.3646875 108.14066406 6.49609375 108.13867188 C5.61953125 108.12642578 4.74296875 108.11417969 3.83984375 108.1015625 C2.95554687 108.10091797 2.07125 108.10027344 1.16015625 108.09960938 C-5.39485099 108.05436776 -5.39485099 108.05436776 -6.53515625 106.9140625 C-6.65806851 105.41476762 -6.71300047 103.90983536 -6.74047852 102.40576172 C-6.76041367 101.43475021 -6.78034882 100.46373871 -6.80088806 99.46330261 C-6.81761063 98.39260025 -6.83433319 97.32189789 -6.8515625 96.21875 C-6.87243423 95.103293 -6.89330597 93.987836 -6.91481018 92.83857727 C-6.98150693 89.15548045 -7.04012536 85.47231321 -7.09765625 81.7890625 C-7.11850281 80.54041412 -7.13934937 79.29176575 -7.16082764 78.00527954 C-7.45910443 60.03777007 -7.63859071 42.07153645 -7.66015625 24.1015625 C-7.66274445 23.0893866 -7.66533264 22.07721069 -7.66799927 21.03436279 C-7.67377942 18.19604832 -7.67233071 15.35784615 -7.66796875 12.51953125 C-7.66994766 11.68464676 -7.67192657 10.84976227 -7.67396545 9.98957825 C-7.66058129 6.70681414 -7.58065711 4.05056507 -6.53515625 0.9140625 C-4.09829818 -0.30436653 -2.7107828 -0.13459485 0 0 Z " fill="#FAF7F2" transform="translate(808.53515625,45.0859375)"/>
<path d="M0 0 C0.33 -0.99 0.66 -1.98 1 -3 C4.45826342 -3.05789006 7.91640293 -3.09355821 11.375 -3.125 C12.35984375 -3.14175781 13.3446875 -3.15851563 14.359375 -3.17578125 C15.30039062 -3.18222656 16.24140625 -3.18867187 17.2109375 -3.1953125 C18.51490479 -3.21102295 18.51490479 -3.21102295 19.84521484 -3.22705078 C22 -3 22 -3 24 -1 C24.25396729 1.49815369 24.25396729 1.49815369 24.25878906 4.68725586 C24.26509338 5.87866684 24.27139771 7.07007782 24.27789307 8.29759216 C24.2738446 9.59028519 24.26979614 10.88297821 24.265625 12.21484375 C24.26697193 13.55001394 24.26891269 14.88518366 24.27142334 16.22035217 C24.27437434 19.02056542 24.27007854 21.82065117 24.26074219 24.62084961 C24.24935854 28.2100514 24.25590014 31.79895374 24.26788712 35.38814449 C24.27511586 38.14622756 24.27281296 40.9042397 24.26763153 43.66232491 C24.26564816 45.62937235 24.27172302 47.59642254 24.27789307 49.5634613 C24.26843658 51.35530602 24.26843658 51.35530602 24.25878906 53.18334961 C24.25719788 54.23654892 24.25560669 55.28974823 24.25396729 56.37486267 C24 59 24 59 22 62 C19.96875 62.38818359 19.96875 62.38818359 17.5 62.3984375 C16.1696875 62.40423828 16.1696875 62.40423828 14.8125 62.41015625 C13.884375 62.39855469 12.95625 62.38695312 12 62.375 C11.071875 62.38660156 10.14375 62.39820313 9.1875 62.41015625 C7.8571875 62.40435547 7.8571875 62.40435547 6.5 62.3984375 C5.27796875 62.39336182 5.27796875 62.39336182 4.03125 62.38818359 C3.02578125 62.19603271 3.02578125 62.19603271 2 62 C1.34 61.01 0.68 60.02 0 59 C-2.93865874 59.4321557 -4.97839934 59.98735571 -7.5625 61.5 C-15.01318753 64.7512091 -22.99610662 64.78740262 -30.62109375 62.0703125 C-39.56026716 58.04841839 -45.74194288 52.27162093 -49.8125 43.3125 C-53.69381567 32.48567207 -52.33667426 22.55122304 -48 12 C-43.76677309 4.11255898 -36.77885872 -0.76862195 -28.5 -3.875 C-18.07659034 -6.84800001 -9.8038734 -3.61671219 0 0 Z M-24.375 20.5 C-27.16149293 24.7869122 -27.69323947 28.9858844 -27 34 C-24.91659439 37.94358919 -22.79845511 40.67427924 -19 43 C-14.35722281 43.77595162 -9.27578842 44.09446313 -4.953125 42.015625 C-2.20879524 39.81472688 0.03307094 37.38425173 1 34 C1.45334816 28.37848283 1.18933562 24.83899198 -2 20 C-5.26574016 16.54764612 -8.16576549 15.27208229 -12.9453125 14.90234375 C-17.80246729 15.13319711 -21.09525421 17.04763601 -24.375 20.5 Z " fill="#FAF7F3" transform="translate(928,91)"/>
<path d="M0 0 C0.66 -1.32 1.32 -2.64 2 -4 C5.29159316 -4.05790353 8.58305603 -4.09356261 11.875 -4.125 C12.81214844 -4.14175781 13.74929688 -4.15851563 14.71484375 -4.17578125 C16.05869141 -4.18544922 16.05869141 -4.18544922 17.4296875 -4.1953125 C18.25710449 -4.20578613 19.08452148 -4.21625977 19.93701172 -4.22705078 C22 -4 22 -4 24 -2 C24.24723816 0.46018982 24.24723816 0.46018982 24.24291992 3.59545898 C24.24753487 5.35254433 24.24753487 5.35254433 24.25224304 7.14512634 C24.24146477 9.05135521 24.24146477 9.05135521 24.23046875 10.99609375 C24.23001053 12.29571548 24.22955231 13.59533722 24.2290802 14.93434143 C24.22751496 17.68748301 24.21922351 20.44049463 24.20581055 23.19360352 C24.18883733 26.72220334 24.18499574 30.25066006 24.18575573 33.77929592 C24.18541828 37.14324769 24.17657764 40.50715256 24.16796875 43.87109375 C24.16685593 45.13988876 24.1657431 46.40868378 24.16459656 47.71592712 C24.15821671 48.89046951 24.15183685 50.0650119 24.14526367 51.27514648 C24.14145187 52.3105809 24.13764008 53.34601532 24.13371277 54.41282654 C24 57 24 57 23 60 C19.45987475 61.77006262 15.39931881 61.22716358 11.5 61.25 C10.61957031 61.270625 9.73914063 61.29125 8.83203125 61.3125 C7.56939453 61.32023437 7.56939453 61.32023437 6.28125 61.328125 C5.50845703 61.3374707 4.73566406 61.34681641 3.93945312 61.35644531 C2.97942383 61.18000488 2.97942383 61.18000488 2 61 C1.34 60.01 0.68 59.02 0 58 C-2.64146083 58.52829217 -4.66977379 59.32149142 -7.125 60.5 C-14.79399254 63.81941468 -23.15700283 63.64274904 -31 61 C-40.60592529 56.66596566 -46.28177142 50.08044878 -50.24609375 40.41015625 C-53.21058644 30.93299568 -52.38697863 20.666873 -48.1875 11.6875 C-43.27949283 2.92447629 -36.77908129 -1.7694774 -27.4375 -5.375 C-17.17170758 -7.24150771 -9.18927066 -4.75528692 0 0 Z M-23.546875 18.4453125 C-26.78926381 22.361681 -27.72719531 25.80032434 -27.42578125 30.85546875 C-26.59149712 35.05750532 -24.30850529 37.79525284 -21.2265625 40.6328125 C-16.90976484 43.28347773 -11.8717581 42.69689588 -7 42 C-3.51212096 40.38252938 -1.62747646 37.98213707 0.4375 34.75 C1.57746361 29.17684457 0.84030958 24.54056756 -1.875 19.5625 C-5.12410154 15.64446579 -7.83508047 14.47096924 -12.87890625 13.98046875 C-17.18637664 14.02013238 -20.41898188 15.5227861 -23.546875 18.4453125 Z " fill="#FAF7F2" transform="translate(644,92)"/>
<path d="M0 0 C5.17319754 3.32275363 8.88090264 7.14131908 11 13 C12.00746237 17.81431623 12.16076034 22.53393171 12.16796875 27.43359375 C12.17296135 28.62783714 12.17296135 28.62783714 12.17805481 29.84620667 C12.18309625 31.52287217 12.185464 33.19954762 12.18530273 34.8762207 C12.18749023 37.42611358 12.20567814 39.97557405 12.22460938 42.52539062 C12.22754378 44.16145687 12.22952826 45.79752515 12.23046875 47.43359375 C12.23765427 48.18797226 12.24483978 48.94235077 12.25224304 49.71958923 C12.23179534 54.5106101 11.51296007 58.44912703 10 63 C6.70840684 63.05790353 3.41694397 63.09356261 0.125 63.125 C-0.81214844 63.14175781 -1.74929688 63.15851563 -2.71484375 63.17578125 C-3.61074219 63.18222656 -4.50664062 63.18867188 -5.4296875 63.1953125 C-6.25710449 63.20578613 -7.08452148 63.21625977 -7.93701172 63.22705078 C-10 63 -10 63 -12 61 C-12.1972422 58.12075412 -12.27690973 55.32960991 -12.2734375 52.44921875 C-12.29373207 50.70116554 -12.31458296 48.95311871 -12.3359375 47.20507812 C-12.35851746 44.44664127 -12.37499797 41.68845658 -12.38085938 38.92993164 C-12.39039509 36.26922875 -12.4241919 33.60966573 -12.4609375 30.94921875 C-12.45589203 30.12822189 -12.45084656 29.30722504 -12.44564819 28.46134949 C-12.5143236 24.45379797 -12.70341145 22.4656721 -14.90869141 19.00317383 C-17.05288407 16.94934464 -18.03165308 16.04375634 -20.98828125 15.91015625 C-21.75527344 15.96042969 -22.52226562 16.01070312 -23.3125 16.0625 C-24.07175781 16.09472656 -24.83101563 16.12695312 -25.61328125 16.16015625 C-29.16002909 17.40819354 -31.12700584 19.84741265 -33 23 C-33.48673028 25.89711611 -33.70012106 28.21664159 -33.671875 31.1015625 C-33.69099945 32.23989029 -33.69099945 32.23989029 -33.71051025 33.4012146 C-33.74663512 35.8095284 -33.74951771 38.21644002 -33.75 40.625 C-33.77166727 43.04017815 -33.80018413 45.4551487 -33.83233643 47.87020874 C-33.84999392 49.36820561 -33.86036846 50.86631097 -33.86248779 52.3644104 C-33.90066258 59.19416338 -33.90066258 59.19416338 -35 62 C-37.32343556 63.16171778 -38.69633316 63.12903969 -41.28125 63.1328125 C-42.54388672 63.13474609 -42.54388672 63.13474609 -43.83203125 63.13671875 C-45.15267578 63.13091797 -45.15267578 63.13091797 -46.5 63.125 C-47.38042969 63.12886719 -48.26085937 63.13273437 -49.16796875 63.13671875 C-50.00972656 63.13542969 -50.85148437 63.13414062 -51.71875 63.1328125 C-52.49154297 63.13168457 -53.26433594 63.13055664 -54.06054688 63.12939453 C-56 63 -56 63 -58 62 C-58.04628835 53.95076017 -58.08185126 45.90157571 -58.10362434 37.85223579 C-58.11407298 34.1148217 -58.1282517 30.3774985 -58.15087891 26.64013672 C-58.17256904 23.035095 -58.18456049 19.43014083 -58.18975449 15.82503891 C-58.19345716 14.44788102 -58.20068734 13.07072806 -58.21146011 11.69360733 C-58.22592335 9.76860455 -58.22681648 7.84351413 -58.22705078 5.91845703 C-58.231492 4.82147491 -58.23593323 3.7244928 -58.24050903 2.5942688 C-58 0 -58 0 -56 -2 C-52.87453844 -2.44626783 -49.7162016 -2.32410302 -46.5625 -2.3125 C-45.69044922 -2.32861328 -44.81839844 -2.34472656 -43.91992188 -2.36132812 C-42.66211914 -2.36229492 -42.66211914 -2.36229492 -41.37890625 -2.36328125 C-40.6113501 -2.36626221 -39.84379395 -2.36924316 -39.05297852 -2.37231445 C-36.50981291 -1.91110295 -35.62372615 -0.95603562 -34 1 C-29.9956627 -0.29678143 -29.9956627 -0.29678143 -26.06640625 -1.80078125 C-16.87816516 -5.57996033 -9.01030964 -3.78855189 0 0 Z " fill="#FAF7F3" transform="translate(416,90)"/>
<path d="M0 0 C1.39895508 -0.01836914 1.39895508 -0.01836914 2.82617188 -0.03710938 C4.16325195 -0.04000977 4.16325195 -0.04000977 5.52734375 -0.04296875 C6.348396 -0.04707764 7.16944824 -0.05118652 8.01538086 -0.05541992 C10.0625 0.1875 10.0625 0.1875 12.0625 2.1875 C12.31646729 4.73034668 12.31646729 4.73034668 12.32128906 7.98242188 C12.32759338 9.1970813 12.33389771 10.41174072 12.34039307 11.66320801 C12.3363446 12.98091187 12.33229614 14.29861572 12.328125 15.65625 C12.32947176 17.01623606 12.33141239 18.37622165 12.33392334 19.73620605 C12.33687409 22.58769307 12.33257864 25.43905487 12.32324219 28.29052734 C12.31184754 31.94932777 12.31840729 35.6078348 12.33038712 39.26662445 C12.33760712 42.07527892 12.33531717 44.88386359 12.33013153 47.69252014 C12.32814461 49.69894602 12.33422863 51.7053746 12.34039307 53.71179199 C12.33408875 54.92645142 12.32778442 56.14111084 12.32128906 57.39257812 C12.31890228 59.00235535 12.31890228 59.00235535 12.31646729 60.64465332 C12.0625 63.1875 12.0625 63.1875 10.0625 65.1875 C8.12304688 65.43041992 8.12304688 65.43041992 5.78125 65.41796875 C4.51861328 65.41506836 4.51861328 65.41506836 3.23046875 65.41210938 C2.35003906 65.39986328 1.46960938 65.38761719 0.5625 65.375 C-0.31792969 65.37435547 -1.19835937 65.37371094 -2.10546875 65.37304688 C-8.65669885 65.32790057 -8.65669885 65.32790057 -10.9375 64.1875 C-12.96904665 52.27915398 -11.92914586 39.6145114 -11.640625 27.60302734 C-11.56150612 24.27063884 -11.49494834 20.93815468 -11.4296875 17.60546875 C-11.38354498 15.48956723 -11.33669694 13.37368096 -11.2890625 11.2578125 C-11.26921295 10.2600882 -11.2493634 9.26236389 -11.22891235 8.23440552 C-11.20573944 7.32190033 -11.18256653 6.40939514 -11.15869141 5.46923828 C-11.14013092 4.66398712 -11.12157043 3.85873596 -11.10244751 3.02908325 C-10.66915582 -1.80847213 -3.69070855 0.00254006 0 0 Z " fill="#FAF7F2" transform="translate(775.9375,87.8125)"/>
<path d="M0 0 C3.19985305 2.5998806 4.69883332 4.09649995 6 8 C6.34530278 13.35219303 6.48807959 16.66997016 3 21 C-0.75863338 24.75863338 -3.67801818 25.90824169 -9 26 C-13.61675015 24.64681461 -17.17382366 22.8008263 -20.109375 18.8671875 C-21.96801738 14.97056006 -21.92620327 11.15806151 -21 7 C-18.84224797 2.98643394 -16.14012744 0.63340413 -12.1875 -1.5625 C-7.77427426 -2.16823687 -4.14478859 -1.63348943 0 0 Z " fill="#FAF7F3" transform="translate(784,51)"/>
<path d="M0 0 C2.375 1.375 2.375 1.375 4.375 4.375 C4 6.4375 4 6.4375 3.375 8.375 C3.375 9.035 3.375 9.695 3.375 10.375 C2.385 10.705 1.395 11.035 0.375 11.375 C-3.53675542 9.29687993 -4.86976928 6.32426912 -6.625 2.375 C-3.3342511 -0.79386931 -3.3342511 -0.79386931 0 0 Z " fill="#AB6AFB" transform="translate(42.625,107.625)"/>
<path d="M0 0 C2.475 0.99 2.475 0.99 5 2 C4.34 2.66 3.68 3.32 3 4 C2.71754903 7.25480543 2.71754903 7.25480543 2.8125 10.9375 C2.81894531 12.18402344 2.82539062 13.43054688 2.83203125 14.71484375 C2.85354341 18.00625139 2.85354341 18.00625139 4 21 C5.65948148 22.01187895 7.32580562 23.0126546 9 24 C9 24.66 9 25.32 9 26 C5.89656201 24.79310745 2.98806107 23.49403054 0 22 C0 14.74 0 7.48 0 0 Z " fill="#CAA8ED" transform="translate(114,189)"/>
<path d="M0 0 C2.4375 0.375 2.4375 0.375 5 1 C6.15410254 3.30820508 6.1210297 4.60784276 6.11352539 7.17431641 C6.11344986 8.03505768 6.11337433 8.89579895 6.11329651 9.78262329 C6.10813522 10.71287323 6.10297394 11.64312317 6.09765625 12.6015625 C6.0962413 13.55316254 6.09482635 14.50476257 6.09336853 15.48519897 C6.08776012 18.53183097 6.07520619 21.57839013 6.0625 24.625 C6.05748608 26.68749894 6.05292299 28.74999903 6.04882812 30.8125 C6.03778796 35.87502817 6.02051767 40.93750173 6 46 C3.03 46.495 3.03 46.495 0 47 C0.64904297 46.51660156 1.29808594 46.03320312 1.96679688 45.53515625 C4.79848143 42.00439107 4.57524308 38.77333585 4.53125 34.4375 C4.5350769 33.60919678 4.53890381 32.78089355 4.54284668 31.92749023 C4.54556425 30.17918683 4.53821381 28.43084266 4.52148438 26.68261719 C4.50007082 24.00884223 4.52128944 21.33775404 4.546875 18.6640625 C4.54423169 16.96353575 4.53910665 15.26301066 4.53125 13.5625 C4.54339539 12.36548462 4.54339539 12.36548462 4.55578613 11.14428711 C4.49325352 7.43668239 4.36198328 5.44022174 1.96679688 2.52734375 C1.31775391 2.02332031 0.66871094 1.51929687 0 1 C0 0.67 0 0.34 0 0 Z " fill="#BD97ED" transform="translate(194,95)"/>
<path d="M0 0 C0.33 0 0.66 0 1 0 C1.33 5.28 1.66 10.56 2 16 C2.99 16 3.98 16 5 16 C5.33 14.68 5.66 13.36 6 12 C7.32 12.33 8.64 12.66 10 13 C10.33 12.34 10.66 11.68 11 11 C11 11.66 11 12.32 11 13 C11.66 13.33 12.32 13.66 13 14 C11.21190303 15.17213045 9.41940875 16.33755526 7.625 17.5 C6.62726563 18.1496875 5.62953125 18.799375 4.6015625 19.46875 C2 21 2 21 0 21 C0 14.07 0 7.14 0 0 Z " fill="#D8B8F5" transform="translate(135,118)"/>
<path d="M0 0 C1.98 0 3.96 0 6 0 C5.35125916 0.40277664 4.70251831 0.80555328 4.03411865 1.22053528 C1.8419888 2.79719206 1.8419888 2.79719206 1.48101807 5.06913757 C1.47213562 5.8618959 1.46325317 6.65465424 1.45410156 7.47143555 C1.43438293 8.37214279 1.41466431 9.27285004 1.39434814 10.20085144 C1.39311951 11.16968765 1.39189087 12.13852386 1.390625 13.13671875 C1.37408875 14.13129593 1.35755249 15.12587311 1.34051514 16.15058899 C1.2919005 19.32962129 1.27063406 22.5081748 1.25 25.6875 C1.22185163 27.84182114 1.19192581 29.99611984 1.16015625 32.15039062 C1.08613839 37.43350643 1.0345749 42.71648684 1 48 C-0.485 48.495 -0.485 48.495 -2 49 C-2 48.34 -2 47.68 -2 47 C-1.34 47 -0.68 47 0 47 C0 31.49 0 15.98 0 0 Z " fill="#C5A1EF" transform="translate(118,98)"/>
<path d="M0 0 C6.55331386 3.73399 12.96189113 7.47141835 19 12 C14.53576387 13.45551681 12.19039989 11.98492627 8 10 C6.3357865 9.32723284 4.67013418 8.65793165 3 8 C3.66 7.67 4.32 7.34 5 7 C5 6.34 5 5.68 5 5 C3.68 4.67 2.36 4.34 1 4 C0.67 2.68 0.34 1.36 0 0 Z " fill="#B685F3" transform="translate(155,21)"/>
<path d="M0 0 C0.66 0 1.32 0 2 0 C2 8.58 2 17.16 2 26 C0.68 26.33 -0.64 26.66 -2 27 C-1.505 25.515 -1.505 25.515 -1 24 C-0.85110253 22.15533558 -0.7520899 20.30642725 -0.68359375 18.45703125 C-0.64169922 17.38388672 -0.59980469 16.31074219 -0.55664062 15.20507812 C-0.51732422 14.08552734 -0.47800781 12.96597656 -0.4375 11.8125 C-0.39431641 10.68134766 -0.35113281 9.55019531 -0.30664062 8.38476562 C-0.20050901 5.58996646 -0.09845615 2.79507838 0 0 Z " fill="#CAA7F2" transform="translate(129,50)"/>
<path d="M0 0 C0.33 0 0.66 0 1 0 C0.89816406 1.11117187 0.79632813 2.22234375 0.69140625 3.3671875 C0.15713364 11.60011684 0.15713364 11.60011684 3.51953125 18.78662109 C7.62353364 22.1991883 12.22292736 24.66032664 17 27 C15.68 27.33 14.36 27.66 13 28 C12.67 27.01 12.34 26.02 12 25 C11.29875 24.9175 10.5975 24.835 9.875 24.75 C6.31472462 23.82123251 3.92969448 22.19727086 1 20 C-0.1482685 17.703463 -0.11561175 16.41686833 -0.09765625 13.8671875 C-0.09443359 13.06152344 -0.09121094 12.25585938 -0.08789062 11.42578125 C-0.07951172 10.58402344 -0.07113281 9.74226562 -0.0625 8.875 C-0.05798828 8.02550781 -0.05347656 7.17601562 -0.04882812 6.30078125 C-0.03702874 4.20049091 -0.01909306 2.1002367 0 0 Z " fill="#D0B0F4" transform="translate(46,164)"/>
<path d="M0 0 C-1.22934015 3.68802044 -2.93859378 4.72356973 -6 7 C-4.02 9.97 -4.02 9.97 -2 13 C-5.39593478 13 -6.06619881 12.47834052 -8.6875 10.5 C-9.31011719 10.0359375 -9.93273438 9.571875 -10.57421875 9.09375 C-11.27998047 8.55234375 -11.27998047 8.55234375 -12 8 C-4.43243243 0 -4.43243243 0 0 0 Z " fill="#C19CEF" transform="translate(43,104)"/>
<path d="M0 0 C0.66 0.33 1.32 0.66 2 1 C1.98952637 1.58491211 1.97905273 2.16982422 1.96826172 2.77246094 C1.92659736 5.43159663 1.90064099 8.09066353 1.875 10.75 C1.85824219 11.67039062 1.84148437 12.59078125 1.82421875 13.5390625 C1.81777344 14.42851562 1.81132812 15.31796875 1.8046875 16.234375 C1.79421387 17.05131836 1.78374023 17.86826172 1.77294922 18.70996094 C2.02170084 21.21887518 2.74299871 22.83395625 4 25 C1.525 24.01 1.525 24.01 -1 23 C-1.02887512 19.35418313 -1.04675585 15.70839537 -1.0625 12.0625 C-1.07087891 11.02158203 -1.07925781 9.98066406 -1.08789062 8.90820312 C-1.09272461 7.42416992 -1.09272461 7.42416992 -1.09765625 5.91015625 C-1.10289307 4.99371338 -1.10812988 4.07727051 -1.11352539 3.13305664 C-1 1 -1 1 0 0 Z " fill="#CFAEF1" transform="translate(140,11)"/>
<path d="M0 0 C0.33 0 0.66 0 1 0 C1.70132913 6.70019789 2.11044961 13.26257354 2 20 C1.401875 20.28875 0.80375 20.5775 0.1875 20.875 C-2.19327792 22.04742026 -2.19327792 22.04742026 -5 24 C-7.1875 23.625 -7.1875 23.625 -9 23 C-7.87926138 22.16094435 -6.75325453 21.32892169 -5.625 20.5 C-4.99851563 20.0359375 -4.37203125 19.571875 -3.7265625 19.09375 C-2 18 -2 18 0 18 C0 12.06 0 6.12 0 0 Z " fill="#CAA2F5" transform="translate(173,55)"/>
<path d="M0 0 C1.65 0 3.3 0 5 0 C3.61858429 4.14424713 0.75871695 5.53609558 -2.75 7.8125 C-3.37132813 8.24498047 -3.99265625 8.67746094 -4.6328125 9.12304688 C-6.484375 10.33203125 -6.484375 10.33203125 -10 12 C-12.953125 11.26171875 -12.953125 11.26171875 -15 10 C-11.86501708 8.14223235 -9.62528568 7.79859524 -6 8 C-6 7.34 -6 6.68 -6 6 C-4.68 5.67 -3.36 5.34 -2 5 C-2 4.34 -2 3.68 -2 3 C-1.01 3 -0.02 3 1 3 C0.67 2.01 0.34 1.02 0 0 Z " fill="#BE96F0" transform="translate(90,74)"/>
<path d="M0 0 C3.78398837 1.26132946 6.58320618 3.36435628 9.84375 5.625 C12.04003072 7.14859065 12.04003072 7.14859065 15 8 C15.33 7.34 15.66 6.68 16 6 C15.67 7.65 15.34 9.3 15 11 C10.95698825 9.51481201 7.38853744 7.57122002 3.6875 5.375 C2.08455078 4.42753906 2.08455078 4.42753906 0.44921875 3.4609375 C-0.35902344 2.97882812 -1.16726562 2.49671875 -2 2 C-1.34 1.34 -0.68 0.68 0 0 Z " fill="#BE94F1" transform="translate(88,35)"/>
<path d="M0 0 C4.34863652 0.56444825 7.17827655 2.15427964 10.8125 4.5625 C12.27623047 5.52349609 12.27623047 5.52349609 13.76953125 6.50390625 C14.50558594 6.99761719 15.24164063 7.49132812 16 8 C15.01 8.66 14.02 9.32 13 10 C12.67 9.01 12.34 8.02 12 7 C10.35 7.33 8.7 7.66 7 8 C6.401875 7.236875 5.80375 6.47375 5.1875 5.6875 C3.53040668 3.6516425 1.89702326 1.8021721 0 0 Z " fill="#BC91F2" transform="translate(150,158)"/>
<path d="M0 0 C2.31 0 4.62 0 7 0 C7 0.33 7 0.66 7 1 C9.97 1.495 9.97 1.495 13 2 C13 2.66 13 3.32 13 4 C11.02 4.99 9.04 5.98 7 7 C1.125 3.375 1.125 3.375 0 0 Z " fill="#B98AF0" transform="translate(166,129)"/>
<path d="M0 0 C-5.14285714 4.42857143 -5.14285714 4.42857143 -9 5 C-9 5.66 -9 6.32 -9 7 C-7.68 7.66 -6.36 8.32 -5 9 C-7.6666419 10.33332095 -9.16680303 9.67102033 -12 9 C-11.3125 5.625 -11.3125 5.625 -10 2 C-6.69519666 -0.05433721 -3.83514128 -0.21915093 0 0 Z " fill="#C094F3" transform="translate(66,43)"/>
<path d="M0 0 C6.24430328 3.33619986 12.16769769 6.98770692 18 11 C15.92446352 11.5534764 14.15634036 12 12 12 C11 11 10 10 9 9 C8.01 8.34 7.02 7.68 6 7 C3.66014947 5.44009965 1.76722109 4.15993688 0 2 C0 1.34 0 0.68 0 0 Z " fill="#BF97F3" transform="translate(62,53)"/>
<path d="M0 0 C0.99 0 1.98 0 3 0 C3 4.95 3 9.9 3 15 C4.32 15.33 5.64 15.66 7 16 C7 16.66 7 17.32 7 18 C2.125 16.125 2.125 16.125 1 15 C0.76346477 12.47403741 0.57826308 9.96892793 0.4375 7.4375 C0.39431641 6.72658203 0.35113281 6.01566406 0.30664062 5.28320312 C0.20028223 3.52238088 0.09961154 1.7612168 0 0 Z " fill="#CEAAEF" transform="translate(71,160)"/>
<path d="M0 0 C2 3 2 3 2 5 C3.32 5.33 4.64 5.66 6 6 C5.67 6.99 5.34 7.98 5 9 C1.59244728 7.07119658 -1.74147635 5.1723491 -5 3 C-5.99 3 -6.98 3 -8 3 C-8 2.34 -8 1.68 -8 1 C-5.36 0.67 -2.72 0.34 0 0 Z " fill="#BB8DF2" transform="translate(142,88)"/>
<path d="M0 0 C1.0828125 0.2165625 1.0828125 0.2165625 2.1875 0.4375 C3.5796875 0.7159375 3.5796875 0.7159375 5 1 C6.66666667 1.33333333 8.33333333 1.66666667 10 2 C10.66 3.98 11.32 5.96 12 8 C9.29320616 7.02254667 7.21365265 6.18026942 5 4.3125 C3.01049685 2.70189681 3.01049685 2.70189681 0.25 3.3125 C-0.4925 3.539375 -1.235 3.76625 -2 4 C-1.34 2.68 -0.68 1.36 0 0 Z " fill="#BD92F3" transform="translate(180,87)"/>
<path d="M0 0 C2.91517292 1.07401108 4.77810176 1.77810176 7 4 C0.25 7 0.25 7 -2 7 C-2 5.35 -2 3.7 -2 2 C-1.34 2 -0.68 2 0 2 C0 1.34 0 0.68 0 0 Z " fill="#B57FF8" transform="translate(119,192)"/>
<path d="M0 0 C0.66 0.33 1.32 0.66 2 1 C2.11928251 15.65470852 2.11928251 15.65470852 -0.625 18.953125 C-2.5625 20 -2.5625 20 -6 21 C-6 20.01 -6 19.02 -6 18 C-7.32 18.33 -8.64 18.66 -10 19 C-9.67 18.34 -9.34 17.68 -9 17 C-7.02 17.33 -5.04 17.66 -3 18 C-2.67 17.01 -2.34 16.02 -2 15 C-1.67 15 -1.34 15 -1 15 C-0.67 10.05 -0.34 5.1 0 0 Z " fill="#C9A2F7" transform="translate(46,65)"/>
<path d="M0 0 C0.33 0.66 0.66 1.32 1 2 C1.99 2 2.98 2 4 2 C4 1.34 4 0.68 4 0 C4.99 0 5.98 0 7 0 C5.76736651 3.69790046 4.79947549 3.9354846 1.4375 5.6875 C0.19806641 6.34298828 0.19806641 6.34298828 -1.06640625 7.01171875 C-1.70449219 7.33785156 -2.34257812 7.66398438 -3 8 C-3 7.34 -3 6.68 -3 6 C-3.66 5.67 -4.32 5.34 -5 5 C-3.68 5 -2.36 5 -1 5 C-0.67 3.35 -0.34 1.7 0 0 Z " fill="#B98AF2" transform="translate(195,157)"/>
<path d="M0 0 C0 6.93 0 13.86 0 21 C-0.33 21 -0.66 21 -1 21 C-1.33 15.39 -1.66 9.78 -2 4 C-3.65 4 -5.3 4 -7 4 C-3.375 0 -3.375 0 0 0 Z " fill="#DABEF9" transform="translate(85,98)"/>
<path d="M0 0 C-1 3 -1 3 -3.375 4.25 C-6 5 -6 5 -9 4 C-8.1875 2.0625 -8.1875 2.0625 -7 0 C-3.86650268 -1.04449911 -3.01031744 -0.93423645 0 0 Z " fill="#B988F6" transform="translate(107,66)"/>
<path d="M0 0 C0.66 0.33 1.32 0.66 2 1 C0.73721868 4.78834395 -0.52112952 5.22011278 -4 7 C-6.1875 7.8125 -6.1875 7.8125 -8 8 C-8.66 7.34 -9.32 6.68 -10 6 C-8.3811004 4.96951963 -6.75467511 3.95085322 -5.125 2.9375 C-4.22007812 2.36902344 -3.31515625 1.80054688 -2.3828125 1.21484375 C-1.20332031 0.61349609 -1.20332031 0.61349609 0 0 Z " fill="#BF93F3" transform="translate(157,191)"/>
<path d="M0 0 C3.9492568 0.55105909 7.34920174 1.38935371 11 3 C11 2.34 11 1.68 11 1 C11.99 1.33 12.98 1.66 14 2 C12.3125 3.5625 12.3125 3.5625 10 5 C6.03845494 4.79684384 3.23677604 3.21950357 0 1 C0 0.67 0 0.34 0 0 Z " fill="#C29DEF" transform="translate(130,219)"/>
<path d="M0 0 C3.62276315 1.3255581 6.63505348 2.94346955 9.8125 5.125 C10.60269531 5.66382813 11.39289063 6.20265625 12.20703125 6.7578125 C12.79871094 7.16773438 13.39039063 7.57765625 14 8 C12 9 12 9 8.875 8.0625 C7.92625 7.711875 6.9775 7.36125 6 7 C6 6.34 6 5.68 6 5 C5.195625 4.731875 4.39125 4.46375 3.5625 4.1875 C2.716875 3.795625 1.87125 3.40375 1 3 C0.67 2.01 0.34 1.02 0 0 Z " fill="#C6A1F3" transform="translate(177,36)"/>
<path d="M0 0 C0.33 0 0.66 0 1 0 C1.33 4.95 1.66 9.9 2 15 C0.35 15.33 -1.3 15.66 -3 16 C-2.67 15.34 -2.34 14.68 -2 14 C-1.34 14 -0.68 14 0 14 C0 9.38 0 4.76 0 0 Z " fill="#D1ABF5" transform="translate(147,97)"/>
<path d="M0 0 C0.86625 0.4640625 0.86625 0.4640625 1.75 0.9375 C5.27305033 2.60116266 6.95224093 3.35719059 10.75 2.0625 C11.4925 1.711875 12.235 1.36125 13 1 C11.515 3.475 11.515 3.475 10 6 C6.6875 5.8125 6.6875 5.8125 3 5 C1.0625 2.4375 1.0625 2.4375 0 0 Z " fill="#C8A3F1" transform="translate(151,78)"/>
<path d="M0 0 C3.99500618 1.3697164 6.80009492 3.25722422 10 6 C5.51474352 5.343621 1.33085971 4.29925791 -3 3 C-2.01 2.01 -1.02 1.02 0 0 Z " fill="#C9A8EF" transform="translate(81,12)"/>
<path d="M0 0 C5.7097955 0.41778991 8.60957142 2.57546571 13 6 C11.68 6.33 10.36 6.66 9 7 C8.67 6.01 8.34 5.02 8 4 C7.236875 3.896875 6.47375 3.79375 5.6875 3.6875 C2.82940576 2.95635961 1.84257115 2.23048087 0 0 Z " fill="#C097F0" transform="translate(50,185)"/>
<path d="M0 0 C1.98 0 3.96 0 6 0 C4.72855876 2.54288247 3.5988174 2.85625863 1.0625 4.0625 C0.35222656 4.40410156 -0.35804688 4.74570313 -1.08984375 5.09765625 C-1.72019531 5.39542969 -2.35054687 5.69320312 -3 6 C-3.99 6.495 -3.99 6.495 -5 7 C-5 6.01 -5 5.02 -5 4 C-4.34 4 -3.68 4 -3 4 C-3 3.34 -3 2.68 -3 2 C-2.01 2 -1.02 2 0 2 C0 1.34 0 0.68 0 0 Z " fill="#BC91EE" transform="translate(138,171)"/>
<path d="M0 0 C0.58265625 0.21527344 1.1653125 0.43054688 1.765625 0.65234375 C0.21856767 3.74645842 -2.11509272 4.3679334 -5.234375 5.65234375 C-7.43359375 5.234375 -7.43359375 5.234375 -9.234375 4.65234375 C-8.16330383 3.78285058 -7.07691556 2.9322017 -5.984375 2.08984375 C-5.38109375 1.61417969 -4.7778125 1.13851562 -4.15625 0.6484375 C-2.234375 -0.34765625 -2.234375 -0.34765625 0 0 Z " fill="#C4A3F1" transform="translate(141.234375,151.34765625)"/>
<path d="M0 0 C2.475 0.99 2.475 0.99 5 2 C3.86500606 5.29148243 3.00716624 5.9959869 -0.125 7.75 C-1.548125 8.36875 -1.548125 8.36875 -3 9 C-3 8.01 -3 7.02 -3 6 C-1.68 5.67 -0.36 5.34 1 5 C0.67 3.35 0.34 1.7 0 0 Z " fill="#C9A9EE" transform="translate(184,122)"/>
<path d="M0 0 C2.31 0 4.62 0 7 0 C4.63404067 2.61500768 2.13950774 4.38999603 -1 6 C-1.66 5.67 -2.32 5.34 -3 5 C-3 4.34 -3 3.68 -3 3 C-2.01 2.34 -1.02 1.68 0 1 C0 0.67 0 0.34 0 0 Z " fill="#C29BF1" transform="translate(74,34)"/>
<path d="M0 0 C2 1 2 1 3 3 C-0.53411321 5.12046792 -3.94393835 5.53199289 -8 6 C-5.63404067 3.38499232 -3.13950774 1.61000397 0 0 Z " fill="#C298F3" transform="translate(59,25)"/>
<path d="M0 0 C3.59391114 1.33488128 6.75490696 2.96022723 10 5 C9.01 5.66 8.02 6.32 7 7 C4.5 5.625 4.5 5.625 2 4 C2 3.34 2 2.68 2 2 C1.01 1.67 0.02 1.34 -1 1 C-0.67 0.67 -0.34 0.34 0 0 Z " fill="#C39AF2" transform="translate(126,196)"/>
<path d="M0 0 C1.32 0 2.64 0 4 0 C4.66 2.31 5.32 4.62 6 7 C3.11562221 5.70700306 1.12780579 4.34058637 -1 2 C-0.67 1.34 -0.34 0.68 0 0 Z " fill="#C295F8" transform="translate(83,179)"/>
<path d="M0 0 C0.66 0.33 1.32 0.66 2 1 C1.34 2.65 0.68 4.3 0 6 C-2.31 6 -4.62 6 -7 6 C-4.74259377 3.66475218 -2.7194239 1.81294927 0 0 Z " fill="#BD92F2" transform="translate(46,142)"/>
<path d="M0 0 C2.31 0 4.62 0 7 0 C3.80331012 2.6486859 0.60513403 4.93992341 -3 7 C-3 6.01 -3 5.02 -3 4 C-2.01 4 -1.02 4 0 4 C0 2.68 0 1.36 0 0 Z " fill="#C8A4F3" transform="translate(27,90)"/>
<path d="M0 0 C0.66 0.33 1.32 0.66 2 1 C2 1.99 2 2.98 2 4 C-1.83887763 5.48320272 -4.06204091 6.22419163 -8 5 C-6.71475739 4.13619741 -5.42157581 3.28419631 -4.125 2.4375 C-3.04605469 1.72400391 -3.04605469 1.72400391 -1.9453125 0.99609375 C-1.30335937 0.66738281 -0.66140625 0.33867187 0 0 Z " fill="#C49CF0" transform="translate(76,15)"/>
<path d="M0 0 C0.99 0.33 1.98 0.66 3 1 C-1.455 3.97 -1.455 3.97 -6 7 C-5.67 5.35 -5.34 3.7 -5 2 C-3.35 2 -1.7 2 0 2 C0 1.34 0 0.68 0 0 Z " fill="#C5A2F0" transform="translate(209,151)"/>
<path d="M0 0 C-2.77280706 3.08089673 -5.06326356 4.68775452 -9 6 C-7.01260984 0.46369883 -5.82303895 -0.15323787 0 0 Z " fill="#C099EE" transform="translate(82,120)"/>
<path d="M0 0 C0.33 0 0.66 0 1 0 C1 3.63 1 7.26 1 11 C1.99 11.33 2.98 11.66 4 12 C2.68 12.33 1.36 12.66 0 13 C-0.66 12.01 -1.32 11.02 -2 10 C-1.67 9.67 -1.34 9.34 -1 9 C-0.76807135 7.48530552 -0.58784762 5.96245438 -0.4375 4.4375 C-0.35371094 3.61121094 -0.26992187 2.78492187 -0.18359375 1.93359375 C-0.12300781 1.29550781 -0.06242188 0.65742187 0 0 Z " fill="#CFA6F6" transform="translate(165,99)"/>
<path d="M0 0 C4.43458973 1.3937282 6.87378374 3.60582235 10 7 C8.35 6.67 6.7 6.34 5 6 C5 5.34 5 4.68 5 4 C4.360625 3.896875 3.72125 3.79375 3.0625 3.6875 C2.381875 3.460625 1.70125 3.23375 1 3 C0.67 2.01 0.34 1.02 0 0 Z " fill="#C7A0F2" transform="translate(137,55)"/>
<path d="M0 0 C2.8125 -0.3125 2.8125 -0.3125 6 0 C7.875 2.5 7.875 2.5 9 5 C4.98525763 5 3.18024863 3.33218233 0 1 C0 0.67 0 0.34 0 0 Z " fill="#C198F4" transform="translate(144,36)"/>
<path d="M0 0 C0.66 0.33 1.32 0.66 2 1 C-2.75 5.875 -2.75 5.875 -5 7 C-5.66 6.34 -6.32 5.68 -7 5 C-4.69 3.35 -2.38 1.7 0 0 Z " fill="#C8A3F4" transform="translate(76,102)"/>
<path d="M0 0 C2.81296623 1.40648311 4.5330209 2.98807877 6.625 5.3125 C2.31659287 4.23539822 -1.01076723 3.27302484 -4.375 0.3125 C-2.375 -0.6875 -2.375 -0.6875 0 0 Z " fill="#C59CF0" transform="translate(208.375,83.6875)"/>
<path d="M0 0 C0.66 0.33 1.32 0.66 2 1 C-0.25 3.5625 -0.25 3.5625 -3 6 C-4.32 5.67 -5.64 5.34 -7 5 C-4.69 3.35 -2.38 1.7 0 0 Z " fill="#C39BF1" transform="translate(16,79)"/>
<path d="M0 0 C2.31 0.33 4.62 0.66 7 1 C7 2.65 7 4.3 7 6 C2.32307692 4.52307692 2.32307692 4.52307692 0.6875 1.875 C0.460625 1.25625 0.23375 0.6375 0 0 Z " fill="#B98EF0" transform="translate(61,211)"/>
<path d="M0 0 C0.66 0.33 1.32 0.66 2 1 C-0.25 3.5625 -0.25 3.5625 -3 6 C-4.32 5.67 -5.64 5.34 -7 5 C-4.69 3.35 -2.38 1.7 0 0 Z " fill="#C8A5F0" transform="translate(130,157)"/>
<path d="M0 0 C0.33 0.66 0.66 1.32 1 2 C1.66 2.33 2.32 2.66 3 3 C0.09399739 4.25664978 -1.79604584 5 -5 5 C-4.67 3.68 -4.34 2.36 -4 1 C-2.02 1.495 -2.02 1.495 0 2 C0 1.34 0 0.68 0 0 Z " fill="#B783F6" transform="translate(145,129)"/>
<path d="M0 0 C-3.96 1.98 -3.96 1.98 -8 4 C-8 2.68 -8 1.36 -8 0 C-4.63458162 -1.08174162 -3.70152678 -0.92538169 0 0 Z " fill="#C196F0" transform="translate(132,94)"/>
<path d="M0 0 C3.93673644 1.31224548 6.22719294 2.91910327 9 6 C5.21213403 5.4739075 2.82847776 4.61896089 0 2 C0 1.34 0 0.68 0 0 Z " fill="#C098F1" transform="translate(191,73)"/>
<path d="M0 0 C1.48280196 0.78483659 2.9611498 1.57809334 4.4375 2.375 C5.67306641 3.03628906 5.67306641 3.03628906 6.93359375 3.7109375 C9 5 9 5 10 7 C6.4257023 6.67506385 4.44287547 6.36129314 1.625 4.0625 C0 2 0 2 0 0 Z " fill="#CCA6F4" transform="translate(62,53)"/>
<path d="M0 0 C2.76276177 0.52268466 5.3260876 1.10869587 8 2 C8.33 1.34 8.66 0.68 9 0 C8.67 1.65 8.34 3.3 8 5 C4.62496331 3.8141763 2.35277269 2.72426311 0 0 Z " fill="#C59CF3" transform="translate(95,41)"/>
<path d="M0 0 C3.93673644 1.31224548 6.22719294 2.91910327 9 6 C4.70042176 5.52226908 2.78280018 4.29813355 0 1 C0 0.67 0 0.34 0 0 Z " fill="#C7A6F0" transform="translate(165,28)"/>
<path d="M0 0 C0.66 0.33 1.32 0.66 2 1 C0.875 2.9375 0.875 2.9375 -1 5 C-4.1875 5.75 -4.1875 5.75 -7 6 C-4.74259377 3.66475218 -2.7194239 1.81294927 0 0 Z " fill="#C7A1F2" transform="translate(192,142)"/>
<path d="M0 0 C4.31392226 0.4793247 6.16569547 1.7457985 9 5 C7.35 5 5.7 5 4 5 C4 4.01 4 3.02 4 2 C2.68 2 1.36 2 0 2 C0 1.34 0 0.68 0 0 Z " fill="#BE95F3" transform="translate(21,138)"/>
<path d="M0 0 C3.61855575 0.62388892 4.1709277 1.1709277 7 4 C4.03 3.67 1.06 3.34 -2 3 C-1.34 2.01 -0.68 1.02 0 0 Z " fill="#D0AFF2" transform="translate(45,101)"/>
<path d="M0 0 C1.65 0.33 3.3 0.66 5 1 C5.33 1.99 5.66 2.98 6 4 C5.236875 3.835 4.47375 3.67 3.6875 3.5 C0.96403764 2.90854604 0.96403764 2.90854604 -2 3 C-1.34 2.01 -0.68 1.02 0 0 Z " fill="#C59DF4" transform="translate(180,87)"/>
<path d="M0 0 C1.32 0.66 2.64 1.32 4 2 C2.35 2 0.7 2 -1 2 C-1.33 2.99 -1.66 3.98 -2 5 C-3.32 4.67 -4.64 4.34 -6 4 C-4.02 2.68 -2.04 1.36 0 0 Z " fill="#CBA9F4" transform="translate(89,57)"/>
<path d="M0 0 C3.37503669 1.1858237 5.64722731 2.27573689 8 5 C5.6875 5.3125 5.6875 5.3125 3 5 C1.1875 2.5 1.1875 2.5 0 0 Z " fill="#C8A3F5" transform="translate(93,19)"/>
<path d="M0 0 C2.31 1.65 4.62 3.3 7 5 C5.68 5.33 4.36 5.66 3 6 C0 2.25 0 2.25 0 0 Z " fill="#C49FEC" transform="translate(73,139)"/>
<path d="M0 0 C0 0.66 0 1.32 0 2 C1.32 2.33 2.64 2.66 4 3 C3.01 3.33 2.02 3.66 1 4 C0.34 3.67 -0.32 3.34 -1 3 C-1.33 3.66 -1.66 4.32 -2 5 C-2.99 3.68 -3.98 2.36 -5 1 C-3 0 -3 0 0 0 Z " fill="#A66AF1" transform="translate(48,103)"/>
<path d="M0 0 C2.125 0.9375 2.125 0.9375 4 2 C0.25 5 0.25 5 -2 5 C-2 3.68 -2 2.36 -2 1 C-1.34 0.67 -0.68 0.34 0 0 Z " fill="#BA91F1" transform="translate(174,90)"/>
<path d="" fill="#FFFFFF" transform="translate(0,0)"/>
<path d="" fill="#FFFFFF" transform="translate(0,0)"/>
<path d="" fill="#FFFFFF" transform="translate(0,0)"/>
<path d="" fill="#FFFFFF" transform="translate(0,0)"/>
<path d="" fill="#FFFFFF" transform="translate(0,0)"/>
<path d="" fill="#FFFFFF" transform="translate(0,0)"/>
<path d="" fill="#FFFFFF" transform="translate(0,0)"/>
<path d="" fill="#FFFFFF" transform="translate(0,0)"/>
<path d="" fill="#FFFFFF" transform="translate(0,0)"/>
<path d="" fill="#FFFFFF" transform="translate(0,0)"/>
<path d="" fill="#FFFFFF" transform="translate(0,0)"/>
<path d="" fill="#FFFFFF" transform="translate(0,0)"/>
<path d="" fill="#FFFFFF" transform="translate(0,0)"/>
<path d="" fill="#FFFFFF" transform="translate(0,0)"/>
<path d="" fill="#FFFFFF" transform="translate(0,0)"/>
<path d="" fill="#FFFFFF" transform="translate(0,0)"/>
<path d="" fill="#FFFFFF" transform="translate(0,0)"/>
<path d="" fill="#FFFFFF" transform="translate(0,0)"/>
<path d="" fill="#FFFFFF" transform="translate(0,0)"/>
<path d="" fill="#FFFFFF" transform="translate(0,0)"/>
<path d="" fill="#FFFFFF" transform="translate(0,0)"/>
<path d="" fill="#FFFFFF" transform="translate(0,0)"/>
<path d="" fill="#FFFFFF" transform="translate(0,0)"/>
<path d="" fill="#FFFFFF" transform="translate(0,0)"/>
<path d="" fill="#FFFFFF" transform="translate(0,0)"/>
<path d="" fill="#FFFFFF" transform="translate(0,0)"/>
<path d="" fill="#FFFFFF" transform="translate(0,0)"/>
<path d="" fill="#FFFFFF" transform="translate(0,0)"/>
<path d="" fill="#FFFFFF" transform="translate(0,0)"/>
<path d="" fill="#FFFFFF" transform="translate(0,0)"/>
<path d="" fill="#FFFFFF" transform="translate(0,0)"/>
<path d="" fill="#FFFFFF" transform="translate(0,0)"/>
<path d="" fill="#FFFFFF" transform="translate(0,0)"/>
<path d="" fill="#FFFFFF" transform="translate(0,0)"/>
<path d="" fill="#FFFFFF" transform="translate(0,0)"/>
<path d="" fill="#FFFFFF" transform="translate(0,0)"/>
<path d="" fill="#FFFFFF" transform="translate(0,0)"/>
<path d="" fill="#FFFFFF" transform="translate(0,0)"/>
<path d="" fill="#FFFFFF" transform="translate(0,0)"/>
<path d="" fill="#FFFFFF" transform="translate(0,0)"/>
<path d="" fill="#FFFFFF" transform="translate(0,0)"/>
<path d="" fill="#FFFFFF" transform="translate(0,0)"/>
<path d="" fill="#FFFFFF" transform="translate(0,0)"/>
<path d="" fill="#FFFFFF" transform="translate(0,0)"/>
<path d="" fill="#FFFFFF" transform="translate(0,0)"/>
<path d="" fill="#FFFFFF" transform="translate(0,0)"/>
<path d="" fill="#FFFFFF" transform="translate(0,0)"/>
<path d="" fill="#FFFFFF" transform="translate(0,0)"/>
<path d="" fill="#FFFFFF" transform="translate(0,0)"/>
<path d="" fill="#FFFFFF" transform="translate(0,0)"/>
<path d="" fill="#FFFFFF" transform="translate(0,0)"/>
<path d="" fill="#FFFFFF" transform="translate(0,0)"/>
<path d="" fill="#FFFFFF" transform="translate(0,0)"/>
<path d="" fill="#FFFFFF" transform="translate(0,0)"/>
<path d="" fill="#FFFFFF" transform="translate(0,0)"/>
<path d="" fill="#FFFFFF" transform="translate(0,0)"/>
<path d="" fill="#FFFFFF" transform="translate(0,0)"/>
<path d="" fill="#FFFFFF" transform="translate(0,0)"/>
<path d="" fill="#FFFFFF" transform="translate(0,0)"/>
<path d="" fill="#FFFFFF" transform="translate(0,0)"/>
<path d="" fill="#FFFFFF" transform="translate(0,0)"/>
<path d="" fill="#FFFFFF" transform="translate(0,0)"/>
<path d="" fill="#FFFFFF" transform="translate(0,0)"/>
<path d="" fill="#FFFFFF" transform="translate(0,0)"/>
<path d="" fill="#FFFFFF" transform="translate(0,0)"/>
<path d="" fill="#FFFFFF" transform="translate(0,0)"/>
<path d="" fill="#FFFFFF" transform="translate(0,0)"/>
</svg>
